<?xml version="1.0" encoding="UTF-8"?>
<svg id="Layer_1" xmlns="http://www.w3.org/2000/svg" version="1.1" viewBox="0 0 1024 488.7">
  <!-- Generator: Adobe Illustrator 30.2.1, SVG Export Plug-In . SVG Version: 2.1.1 Build 1)  -->
  <defs>
    <style>
      .st0 {
        fill: #231f20;
      }

      .st1 {
        fill: #c6ad2e;
      }

      .st2 {
        fill: #184478;
      }
    </style>
  </defs>
  <g>
    <path class="st0" d="M871.68-222.98v28.51c-2.57-.2-4.55-.4-6.93-.4-17.03,0-28.31,9.31-28.31,29.7v53.39h-30.89v-109.62h29.5v14.06c7.52-10.3,20.2-15.64,36.63-15.64ZM794.27-219.87v88.7c0,39.6-21.38,57.81-59.79,57.81-20.2,0-39.8-4.95-52.27-14.65l12.28-22.17c9.11,7.33,23.96,12.08,37.62,12.08,21.78,0,31.28-9.9,31.28-29.1v-4.55c-8.12,8.91-19.8,13.27-33.66,13.27-29.5,0-53.26-20.39-53.26-51.48s23.76-51.48,53.26-51.48c14.85,0,27.12,4.95,35.24,15.25v-13.66h29.3ZM763.78-169.98c0-15.64-11.68-26.14-27.92-26.14s-28.11,10.49-28.11,26.14,11.88,26.14,28.11,26.14,27.92-10.49,27.92-26.14ZM664.12-174.14v62.37h-28.91v-14.85c-5.74,9.7-16.83,14.85-32.47,14.85-24.95,0-39.8-13.86-39.8-32.27s13.27-31.88,45.74-31.88h24.55c0-13.27-7.92-20.99-24.55-20.99-11.29,0-22.97,3.76-30.69,9.9l-11.09-21.58c11.68-8.32,28.91-12.87,45.93-12.87,32.47,0,51.28,15.05,51.28,47.32ZM633.23-147.01v-10.89h-21.18c-14.45,0-19.01,5.34-19.01,12.47,0,7.72,6.53,12.87,17.42,12.87,10.3,0,19.2-4.75,22.77-14.45ZM552.87-174.34v62.57h-30.89v-57.82c0-17.23-7.92-25.14-21.58-25.14-14.85,0-25.54,9.11-25.54,28.71v54.25h-30.89v-109.69s29.5,0,29.5,0v14.06c8.32-9.11,20.79-14.06,35.24-14.06,25.14,0,44.15,14.65,44.15,47.12ZM433.53-174.14v62.37h-28.91v-14.85c-5.74,9.7-16.83,14.85-32.47,14.85-24.95,0-39.8-13.86-39.8-32.27s13.27-31.88,45.74-31.88h24.55c0-13.27-7.92-20.99-24.55-20.99-11.29,0-22.97,3.76-30.69,9.9l-11.09-21.58c11.68-8.32,28.91-12.87,45.93-12.87,32.47,0,51.28,15.05,51.28,47.32ZM402.64-147.01v-10.89h-21.18c-14.45,0-19.01,5.34-19.01,12.47,0,7.72,6.53,12.87,17.42,12.87,10.3,0,19.2-4.75,22.77-14.45ZM290.91-111.77l-.2-83.16-40.79,68.51h-14.45l-40.59-66.72v81.37h-30.09v-138.59h26.53l51.87,86.13,51.08-86.13h26.33l.4,138.59h-30.09Z"/>
    <g>
      <path class="st1" d="M725.95-431.88c0,76.33-53.66,129.99-130,129.99-14.17,0-27.52-1.83-39.88-5.31v-80.09c8.97,14.22,22.86,22.29,40.27,22.29,30.99,0,51.39-26.83,51.39-68.02s-20.02-69.17-51.77-69.17c-18.68,0-33.35,9.53-42.12,26.03-5.28-25.46-17.92-48.24-35.59-66.01,21.03-14.82,47.52-23.13,77.71-23.13,78.23,0,130,53.29,130,133.41Z"/>
      <path class="st2" d="M546.7-438.35v136.45s-58.58,0-58.58,0v-21.34c-19.77,14.34-44.67,21.34-70.65,21.34-69.17,0-119.42-55.54-119.42-131.51s51.39-131.87,126.6-131.87c61.97,0,107.32,36.28,117.15,92.96l-74.83,1.5c-5.29-20.02-20.4-31.35-41.57-31.35-31.37,0-49.12,24.18-49.12,66.88,0,47.23,19.27,72.94,54.41,72.94,21.17,0,37.03-10.2,43.46-28.35h-32.87v-47.65s105.43,0,105.43,0Z"/>
    </g>
  </g>
  <path class="st0" d="M1000.42,196.13v26.95c-2.43-.19-4.3-.37-6.55-.37-16.09,0-26.76,8.79-26.76,28.07v50.46h-29.19v-103.6h27.88v13.29c7.11-9.73,19.09-14.78,34.62-14.78ZM927.26,199.07v83.83c0,37.42-20.21,54.64-56.51,54.64-19.09,0-37.61-4.68-49.4-13.85l11.6-20.96c8.61,6.92,22.64,11.41,35.55,11.41,20.58,0,29.56-9.36,29.56-27.51v-4.3c-7.67,8.42-18.71,12.54-31.81,12.54-27.88,0-50.34-19.27-50.34-48.65s22.45-48.65,50.34-48.65c14.03,0,25.63,4.68,33.31,14.41v-12.91h27.69ZM898.44,246.22c0-14.78-11.04-24.7-26.38-24.7s-26.57,9.92-26.57,24.7,11.23,24.7,26.57,24.7,26.38-9.92,26.38-24.7ZM804.26,242.29v58.94h-27.32v-14.03c-5.43,9.17-15.9,14.03-30.69,14.03-23.58,0-37.61-13.1-37.61-30.5s12.54-30.13,43.22-30.13h23.2c0-12.54-7.48-19.83-23.2-19.83-10.67,0-21.71,3.55-29,9.36l-10.48-20.39c11.04-7.86,27.32-12.16,43.41-12.16,30.69,0,48.46,14.22,48.46,44.72ZM775.07,267.93v-10.29h-20.02c-13.66,0-17.96,5.05-17.96,11.79,0,7.3,6.18,12.16,16.47,12.16,9.73,0,18.15-4.49,21.52-13.66ZM699.12,242.1v59.13h-29.19v-54.64c0-16.28-7.48-23.76-20.39-23.76-14.03,0-24.14,8.61-24.14,27.13v51.27h-29.19v-103.66s27.88,0,27.88,0v13.29c7.86-8.61,19.65-13.29,33.31-13.29,23.76,0,41.73,13.85,41.73,44.53ZM586.33,242.29v58.94h-27.32v-14.03c-5.43,9.17-15.9,14.03-30.69,14.03-23.58,0-37.61-13.1-37.61-30.5s12.54-30.13,43.22-30.13h23.2c0-12.54-7.48-19.83-23.2-19.83-10.67,0-21.71,3.55-29,9.36l-10.48-20.39c11.04-7.86,27.32-12.16,43.41-12.16,30.69,0,48.46,14.22,48.46,44.72ZM557.14,267.93v-10.29h-20.02c-13.66,0-17.96,5.05-17.96,11.79,0,7.3,6.18,12.16,16.47,12.16,9.73,0,18.15-4.49,21.52-13.66ZM451.55,301.23l-.19-78.59-38.55,64.74h-13.66l-38.36-63.06v76.9h-28.44v-130.98h25.07l49.02,81.4,48.28-81.4h24.89l.37,130.98h-28.44Z"/>
  <g>
    <path class="st1" d="M316.21,242.39c0,52.2-36.69,88.89-88.9,88.89-9.69,0-18.82-1.25-27.27-3.63v-54.77c6.14,9.72,15.63,15.24,27.54,15.24,21.19,0,35.14-18.35,35.14-46.51s-13.69-47.3-35.4-47.3c-12.78,0-22.81,6.51-28.81,17.8-3.61-17.41-12.25-32.99-24.34-45.14,14.38-10.13,32.5-15.82,53.14-15.82,53.5,0,88.9,36.44,88.9,91.23Z"/>
    <path class="st2" d="M193.63,237.97v93.32s-40.06,0-40.06,0v-14.59c-13.52,9.81-30.55,14.59-48.32,14.59-47.3,0-81.67-37.98-81.67-89.93s35.14-90.18,86.58-90.18c42.38,0,73.39,24.81,80.11,63.57l-51.17,1.03c-3.62-13.69-13.95-21.44-28.43-21.44-21.45,0-33.59,16.53-33.59,45.74,0,32.3,13.18,49.88,37.21,49.88,14.48,0,25.32-6.98,29.72-19.39h-22.48v-32.59s72.1,0,72.1,0Z"/>
  </g>
  <g>
    <path class="st1" d="M1588.93-317.33c0,88.81-62.43,151.24-151.26,151.24-16.49,0-32.02-2.12-46.4-6.18v-93.18c10.44,16.54,26.59,25.93,46.85,25.93,36.05,0,59.79-31.22,59.79-79.14s-23.29-80.48-60.24-80.48c-21.74,0-38.8,11.08-49.01,30.29-6.14-29.63-20.85-56.13-41.41-76.8,24.47-17.24,55.29-26.91,90.42-26.91,91.02,0,151.26,62,151.26,155.22Z"/>
    <path class="st2" d="M1380.38-324.86v158.77s-68.16,0-68.16,0v-24.83c-23.01,16.69-51.97,24.83-82.21,24.83-80.48,0-138.94-64.63-138.94-153.01s59.79-153.44,147.3-153.44c72.1,0,124.86,42.21,136.3,108.16l-87.06,1.75c-6.16-23.29-23.74-36.48-48.37-36.48-36.5,0-57.15,28.13-57.15,77.82,0,54.95,22.42,84.87,63.31,84.87,24.63,0,43.08-11.87,50.56-32.98h-38.25v-55.45s122.67,0,122.67,0Z"/>
  </g>
</svg>