<?xml version="1.0" encoding="UTF-8"?>
<svg id="Layer_1" xmlns="http://www.w3.org/2000/svg" version="1.1" viewBox="298 4 428 264">
  <defs>
    <style>
      .st1 {
        fill: #c6ad2e;
      }

      .st2 {
        fill: #184478;
      }
    </style>
  </defs>
  <g>
    <path class="st1" d="M725.95,137.44c0,76.33-53.66,129.99-130,129.99-14.17,0-27.52-1.83-39.88-5.31v-80.09c8.97,14.22,22.86,22.29,40.27,22.29,30.99,0,51.39-26.83,51.39-68.02s-20.02-69.17-51.77-69.17c-18.68,0-33.35,9.53-42.12,26.03-5.28-25.46-17.92-48.24-35.59-66.01,21.03-14.82,47.52-23.13,77.71-23.13,78.23,0,130,53.29,130,133.41Z"/>
    <path class="st2" d="M546.7,130.97v136.45s-58.58,0-58.58,0v-21.34c-19.77,14.34-44.67,21.34-70.65,21.34-69.17,0-119.42-55.54-119.42-131.51S349.44,4.05,424.65,4.05c61.97,0,107.32,36.28,117.15,92.96l-74.83,1.5c-5.29-20.02-20.4-31.35-41.57-31.35-31.37,0-49.12,24.18-49.12,66.88,0,47.23,19.27,72.94,54.41,72.94,21.17,0,37.03-10.2,43.46-28.35h-32.87v-47.65s105.43,0,105.43,0Z"/>
  </g>
</svg>
