<?xml version="1.0" encoding="UTF-8"?>
<svg id="Layer_1" xmlns="http://www.w3.org/2000/svg" version="1.1" viewBox="0 0 1024 500">
  <!-- Generator: Adobe Illustrator 30.2.1, SVG Export Plug-In . SVG Version: 2.1.1 Build 1)  -->
  <defs>
    <style>
      .st0 {
        fill: #231f20;
      }

      .st1 {
        fill: #c6ad2e;
      }

      .st2 {
        fill: #184478;
      }
    </style>
  </defs>
  <path class="st0" d="M1000.42,346.35v28.51c-2.57-.2-4.55-.4-6.93-.4-17.03,0-28.31,9.31-28.31,29.7v53.39h-30.89v-109.62h29.5v14.06c7.52-10.3,20.2-15.64,36.63-15.64ZM923,349.45v88.7c0,39.6-21.38,57.81-59.79,57.81-20.2,0-39.8-4.95-52.27-14.65l12.28-22.17c9.11,7.33,23.96,12.08,37.62,12.08,21.78,0,31.28-9.9,31.28-29.1v-4.55c-8.12,8.91-19.8,13.27-33.66,13.27-29.5,0-53.26-20.39-53.26-51.48s23.76-51.48,53.26-51.48c14.85,0,27.12,4.95,35.24,15.25v-13.66h29.3ZM892.51,399.34c0-15.64-11.68-26.14-27.92-26.14s-28.11,10.49-28.11,26.14,11.88,26.14,28.11,26.14,27.92-10.49,27.92-26.14ZM792.85,395.19v62.37h-28.91v-14.85c-5.74,9.7-16.83,14.85-32.47,14.85-24.95,0-39.8-13.86-39.8-32.27s13.27-31.88,45.74-31.88h24.55c0-13.27-7.92-20.99-24.55-20.99-11.29,0-22.97,3.76-30.69,9.9l-11.09-21.58c11.68-8.32,28.91-12.87,45.93-12.87,32.47,0,51.28,15.05,51.28,47.32ZM761.97,422.31v-10.89h-21.18c-14.45,0-19.01,5.34-19.01,12.47,0,7.72,6.53,12.87,17.42,12.87,10.3,0,19.2-4.75,22.77-14.45ZM681.6,394.99v62.57h-30.89v-57.82c0-17.23-7.92-25.14-21.58-25.14-14.85,0-25.54,9.11-25.54,28.71v54.25h-30.89v-109.69s29.5,0,29.5,0v14.06c8.32-9.11,20.79-14.06,35.24-14.06,25.14,0,44.15,14.65,44.15,47.12ZM562.27,395.19v62.37h-28.91v-14.85c-5.74,9.7-16.83,14.85-32.47,14.85-24.95,0-39.8-13.86-39.8-32.27s13.27-31.88,45.74-31.88h24.55c0-13.27-7.92-20.99-24.55-20.99-11.29,0-22.97,3.76-30.69,9.9l-11.09-21.58c11.68-8.32,28.91-12.87,45.93-12.87,32.47,0,51.28,15.05,51.28,47.32ZM531.38,422.31v-10.89h-21.18c-14.45,0-19.01,5.34-19.01,12.47,0,7.72,6.53,12.87,17.42,12.87,10.3,0,19.2-4.75,22.77-14.45ZM419.65,457.56l-.2-83.16-40.79,68.51h-14.45l-40.59-66.72v81.37h-30.09v-138.59h26.53l51.87,86.13,51.08-86.13h26.33l.4,138.59h-30.09ZM166.01,402.61c0-32.08,24.75-54.84,58.61-54.84s58.41,22.77,58.41,54.84-24.55,54.84-58.41,54.84-58.61-22.77-58.61-54.84ZM251.74,402.61c0-18.41-11.68-29.5-27.13-29.5s-27.32,11.09-27.32,29.5,11.88,29.5,27.32,29.5,27.13-11.09,27.13-29.5ZM125.95,383.6h29.3v56.23c-15.25,11.48-36.23,17.62-56.03,17.62-43.56,0-75.63-29.9-75.63-71.67s32.08-71.67,76.23-71.67c24.35,0,44.55,8.32,58.01,23.96l-20.59,19.01c-10.1-10.69-21.78-15.64-35.84-15.64-26.93,0-45.34,18.02-45.34,44.35s18.41,44.35,44.94,44.35c8.71,0,16.83-1.58,24.95-5.94v-40.59Z"/>
  <g>
    <path class="st1" d="M725.95,137.44c0,76.33-53.66,129.99-130,129.99-14.17,0-27.52-1.83-39.88-5.31v-80.09c8.97,14.22,22.86,22.29,40.27,22.29,30.99,0,51.39-26.83,51.39-68.02s-20.02-69.17-51.77-69.17c-18.68,0-33.35,9.53-42.12,26.03-5.28-25.46-17.92-48.24-35.59-66.01,21.03-14.82,47.52-23.13,77.71-23.13,78.23,0,130,53.29,130,133.41Z"/>
    <path class="st2" d="M546.7,130.97v136.45s-58.58,0-58.58,0v-21.34c-19.77,14.34-44.67,21.34-70.65,21.34-69.17,0-119.42-55.54-119.42-131.51S349.44,4.05,424.65,4.05c61.97,0,107.32,36.28,117.15,92.96l-74.83,1.5c-5.29-20.02-20.4-31.35-41.57-31.35-31.37,0-49.12,24.18-49.12,66.88,0,47.23,19.27,72.94,54.41,72.94,21.17,0,37.03-10.2,43.46-28.35h-32.87v-47.65s105.43,0,105.43,0Z"/>
  </g>
</svg>