<?xml version="1.0" encoding="UTF-8"?>
<svg id="Layer_1" xmlns="http://www.w3.org/2000/svg" version="1.1" viewBox="0 0 1024 488.7">
  <!-- Generator: Adobe Illustrator 30.2.1, SVG Export Plug-In . SVG Version: 2.1.1 Build 1)  -->
  <defs>
    <style>
      .st0 {
        fill: #231f20;
      }

      .st1 {
        fill: #c6ad2e;
      }

      .st2 {
        fill: #184478;
      }
    </style>
  </defs>
  <path class="st0" d="M1000.42,218.64v19.5c-1.76-.14-3.11-.27-4.74-.27-11.64,0-19.36,6.36-19.36,20.31v36.51h-21.12v-74.97h20.18v9.61c5.15-7.04,13.81-10.7,25.05-10.7ZM947.48,220.77v60.66c0,27.08-14.62,39.54-40.89,39.54-13.81,0-27.22-3.38-35.75-10.02l8.4-15.16c6.23,5.01,16.38,8.26,25.73,8.26,14.89,0,21.39-6.77,21.39-19.9v-3.11c-5.55,6.09-13.54,9.07-23.02,9.07-20.18,0-36.42-13.95-36.42-35.2s16.25-35.2,36.42-35.2c10.16,0,18.55,3.39,24.1,10.43v-9.34h20.04ZM926.62,254.89c0-10.7-7.99-17.87-19.09-17.87s-19.23,7.18-19.23,17.87,8.12,17.87,19.23,17.87,19.09-7.18,19.09-17.87ZM858.47,252.04v42.65h-19.77v-10.16c-3.93,6.63-11.51,10.16-22.2,10.16-17.06,0-27.22-9.48-27.22-22.07s9.07-21.8,31.28-21.8h16.79c0-9.07-5.42-14.35-16.79-14.35-7.72,0-15.71,2.57-20.99,6.77l-7.58-14.76c7.99-5.69,19.77-8.8,31.41-8.8,22.21,0,35.07,10.29,35.07,32.36ZM837.35,270.59v-7.45h-14.49c-9.88,0-13,3.66-13,8.53,0,5.28,4.47,8.8,11.92,8.8,7.04,0,13.13-3.25,15.57-9.88ZM782.39,251.91v42.79h-21.12v-39.54c0-11.78-5.42-17.2-14.76-17.2-10.16,0-17.47,6.23-17.47,19.63v37.1h-21.12v-75.01s20.18,0,20.18,0v9.61c5.69-6.23,14.22-9.61,24.1-9.61,17.2,0,30.19,10.02,30.19,32.23ZM700.78,252.04v42.65h-19.77v-10.16c-3.93,6.63-11.51,10.16-22.2,10.16-17.06,0-27.22-9.48-27.22-22.07s9.07-21.8,31.28-21.8h16.79c0-9.07-5.42-14.35-16.79-14.35-7.72,0-15.71,2.57-20.99,6.77l-7.58-14.76c7.99-5.69,19.77-8.8,31.41-8.8,22.21,0,35.07,10.29,35.07,32.36ZM679.66,270.59v-7.45h-14.49c-9.88,0-13,3.66-13,8.53,0,5.28,4.47,8.8,11.92,8.8,7.04,0,13.13-3.25,15.57-9.88ZM603.25,294.7l-.14-56.87-27.89,46.85h-9.88l-27.76-45.63v55.65h-20.58v-94.78h18.14l35.47,58.9,34.93-58.9h18.01l.27,94.78h-20.58ZM429.8,257.12c0-21.94,16.93-37.51,40.08-37.51s39.94,15.57,39.94,37.51-16.79,37.51-39.94,37.51-40.08-15.57-40.08-37.51ZM488.43,257.12c0-12.59-7.99-20.18-18.55-20.18s-18.69,7.58-18.69,20.18,8.12,20.18,18.69,20.18,18.55-7.58,18.55-20.18ZM402.4,244.12h20.04v38.45c-10.43,7.85-24.78,12.05-38.32,12.05-29.79,0-51.72-20.45-51.72-49.01s21.94-49.01,52.13-49.01c16.65,0,30.46,5.69,39.67,16.38l-14.08,13c-6.91-7.31-14.89-10.7-24.51-10.7-18.41,0-31.01,12.32-31.01,30.33s12.59,30.33,30.74,30.33c5.96,0,11.51-1.08,17.06-4.06v-27.76Z"/>
  <g>
    <path class="st1" d="M316.21,245.52c0,52.2-36.69,88.89-88.9,88.89-9.69,0-18.82-1.25-27.27-3.63v-54.77c6.14,9.72,15.63,15.24,27.54,15.24,21.19,0,35.14-18.35,35.14-46.51s-13.69-47.3-35.4-47.3c-12.78,0-22.81,6.51-28.81,17.8-3.61-17.41-12.25-32.99-24.34-45.14,14.38-10.13,32.5-15.82,53.14-15.82,53.5,0,88.9,36.44,88.9,91.23Z"/>
    <path class="st2" d="M193.63,241.09v93.32s-40.06,0-40.06,0v-14.59c-13.52,9.81-30.55,14.59-48.32,14.59-47.3,0-81.67-37.98-81.67-89.93s35.14-90.18,86.58-90.18c42.38,0,73.39,24.81,80.11,63.57l-51.17,1.03c-3.62-13.69-13.95-21.44-28.43-21.44-21.45,0-33.59,16.53-33.59,45.74,0,32.3,13.18,49.88,37.21,49.88,14.48,0,25.32-6.98,29.72-19.39h-22.48v-32.59s72.1,0,72.1,0Z"/>
  </g>
</svg>